<?xml version="1.0" encoding="UTF-8"?>
<svg version="1.1" xmlns="http://www.w3.org/2000/svg" width="275" height="70">
<path d="M0 0 C3.10572205 2.19283796 3.10572205 2.19283796 6.375 1.1875 C8.08973083 0.36741134 9.7999183 -0.46245915 11.5 -1.3125 C16.96629984 -3.05177722 22.91499258 -3.24123218 28.125 -0.625 C32.35314863 2.67295594 34.68186205 5.60867055 35.62890625 10.94921875 C36.01842473 18.14902798 33.51446769 24.04481727 29 29.5625 C21.19065644 35.95196292 13.87686707 39.32305945 3.609375 39.05859375 C-1.38327787 38.53783691 -4.07194789 36.46107158 -7.625 33.0625 C-10.15988464 29.1856176 -10.49385636 27.35828888 -9.75 22.8125 C-7.57602138 19.31860579 -5.61915904 17.19894866 -1.75 15.8125 C0.89238246 15.82936627 3.38190563 15.94004307 6 16.1875 C6.69738281 16.24421875 7.39476562 16.3009375 8.11328125 16.359375 C9.82639312 16.50017872 11.53834611 16.65495972 13.25 16.8125 C13.53875 16.02875 13.8275 15.245 14.125 14.4375 C15.25 11.8125 15.25 11.8125 17.25 9.8125 C20.75 9.5 20.75 9.5 24.25 9.8125 C24.91 10.8025 25.57 11.7925 26.25 12.8125 C25.3425 12.998125 24.435 13.18375 23.5 13.375 C20.00094825 14.9226575 19.81630914 15.17037615 18.3125 18.375 C17.36328125 20.25390625 17.36328125 20.25390625 16.25 21.8125 C12.32529632 23.02010113 9.06099323 22.84861082 5.0625 22.3125 C1.87760448 21.89480878 0.17700138 21.71487448 -2.75 22.8125 C-2.4710976 27.66374671 -2.4710976 27.66374671 -0.125 31.75 C5.53613766 34.28261422 11.24918747 32.63370837 16.88671875 30.77734375 C22.20133651 28.60757418 25.16237322 25.47063405 27.6875 20.4375 C29.35995458 16.21420083 29.72150786 13.22702359 28.25 8.8125 C25.62811518 5.80504388 23.98661082 4.94249014 20.0625 4.25 C15.62287131 4.90502718 12.47986915 6.46654083 8.58203125 8.62109375 C6.39874687 9.73650704 4.6880431 10.55532246 2.25 10.8125 C0.54006566 9.1902546 -1.12347684 7.51836575 -2.75 5.8125 C-6.51116385 3.57613231 -9.60952012 3.60165911 -13.81640625 4.26171875 C-16.76284741 5.10100805 -18.61108171 6.67358171 -20.75 8.8125 C-22.9775263 13.2675526 -22.42925079 19.410571 -21.1015625 24.10546875 C-17.13835287 32.86179088 -9.29138501 37.19673798 -0.75 40.8125 C1.58002762 41.61266963 3.85069333 42.23875275 6.25 42.8125 C6.25 43.1425 6.25 43.4725 6.25 43.8125 C-4.14393422 44.62417382 -12.91280613 42.00400238 -21.03125 35.3828125 C-25.95827376 30.88130442 -29.25465128 26.56254037 -29.96875 19.71484375 C-30.22440829 13.50447775 -29.41160718 7.84377484 -25.203125 3.05078125 C-17.99278816 -3.53742476 -8.54369665 -5.58844903 0 0 Z " fill="#EB6508" transform="translate(149.75,26.1875)"/>
<path d="M0 0 C15 0 15 0 21 3 C23.25327837 6.7319923 24.21683609 8.79535503 23.4375 13.125 C21.93679656 16.12640688 20.21618758 18.48832075 18 21 C18.3609375 21.61488281 18.721875 22.22976562 19.09375 22.86328125 C19.5578125 23.67152344 20.021875 24.47976562 20.5 25.3125 C20.9640625 26.11300781 21.428125 26.91351563 21.90625 27.73828125 C23 30 23 30 23 33 C21.02 33 19.04 33 17 33 C16.63648437 32.14535156 16.27296875 31.29070313 15.8984375 30.41015625 C15.39570313 29.30542969 14.89296875 28.20070313 14.375 27.0625 C13.88773438 25.96035156 13.40046875 24.85820313 12.8984375 23.72265625 C12.27195312 22.82417969 11.64546875 21.92570312 11 21 C9.02 20.67 7.04 20.34 5 20 C5 24.29 5 28.58 5 33 C3.35 33 1.7 33 0 33 C0 22.11 0 11.22 0 0 Z M5 6 C5 9.3 5 12.6 5 16 C11.15726062 16.55634143 11.15726062 16.55634143 16.625 14.3125 C18.26068357 12.06137727 18.26068357 12.06137727 17.8125 9.3125 C17.21073101 7.06648733 17.21073101 7.06648733 16 6 C14.14712498 5.92773498 12.29166122 5.9161878 10.4375 5.9375 C9.42558594 5.94652344 8.41367188 5.95554687 7.37109375 5.96484375 C6.58863281 5.97644531 5.80617188 5.98804688 5 6 Z " fill="#FFFFFF" transform="translate(0,23)"/>
<path d="M0 0 C1.65 0 3.3 0 5 0 C5.01981934 0.64549805 5.03963867 1.29099609 5.06005859 1.95605469 C5.15546328 4.88777221 5.26507971 7.81879232 5.375 10.75 C5.4059375 11.76578125 5.436875 12.7815625 5.46875 13.828125 C5.50742188 14.8078125 5.54609375 15.7875 5.5859375 16.796875 C5.6173584 17.69760742 5.6487793 18.59833984 5.68115234 19.52636719 C6.01831945 22.14212306 6.53575401 23.8101374 8 26 C11.95086687 27.11654933 13.95742988 27.01064253 18 26 C18.33 17.75 18.66 9.5 19 1 C20.65 0.67 22.3 0.34 24 0 C26.52767366 2.52767366 25.28293422 9.29532003 25.3125 12.6875 C25.34150391 13.77740234 25.37050781 14.86730469 25.40039062 15.99023438 C25.45007965 22.27016229 25.41486755 26.3377143 21 31 C17.00485335 33.73185917 12.67437416 33.67239698 8 33 C4.1973971 30.9949912 2.38209159 29.57313738 0 26 C-0.22705078 23.27270508 -0.22705078 23.27270508 -0.1953125 20.01953125 C-0.18886719 18.85615234 -0.18242188 17.69277344 -0.17578125 16.49414062 C-0.15902344 15.27919922 -0.14226562 14.06425781 -0.125 12.8125 C-0.11597656 11.58595703 -0.10695313 10.35941406 -0.09765625 9.09570312 C-0.07406017 6.06360705 -0.04113841 3.03190062 0 0 Z " fill="#FFFFFF" transform="translate(79,23)"/>
<path d="M0 0 C1.65 0 3.3 0 5 0 C6.10675619 2.1862225 7.21044378 4.37390948 8.3125 6.5625 C8.62123047 7.17158203 8.92996094 7.78066406 9.24804688 8.40820312 C11.3279067 12.54602951 13.2128583 16.72735662 15 21 C18.5155414 14.07438344 21.9356327 7.13817323 25 0 C26.65 0 28.3 0 30 0 C30.33 0.66 30.66 1.32 31 2 C30.08852747 4.39045494 29.11429154 6.66242711 28.03515625 8.9765625 C27.72299667 9.66181 27.4108371 10.3470575 27.08921814 11.05307007 C26.0876593 13.24716329 25.07523804 15.43604763 24.0625 17.625 C23.38274375 19.10904552 22.70369791 20.59341665 22.02539062 22.078125 C20.35848906 25.72258353 18.68182681 29.36240649 17 33 C15.20214844 32.88012695 15.20214844 32.88012695 13 32 C11.35253906 29.37963867 11.35253906 29.37963867 9.765625 25.91796875 C9.48273621 25.30738113 9.19984741 24.69679352 8.90838623 24.06770325 C8.31335028 22.77543232 7.72539611 21.47988039 7.14404297 20.18139648 C6.254738 18.19806671 5.3423728 16.22670358 4.42578125 14.25585938 C0 4.58476194 0 4.58476194 0 0 Z " fill="#FFFFFF" transform="translate(216,23)"/>
<path d="M0 0 C6.6 0 13.2 0 20 0 C20 1.65 20 3.3 20 5 C15.05 5 10.1 5 5 5 C5 8.3 5 11.6 5 15 C9.29 15 13.58 15 18 15 C18 16.65 18 18.3 18 20 C13.71 20 9.42 20 5 20 C5 24.29 5 28.58 5 33 C3.35 33 1.7 33 0 33 C0 22.11 0 11.22 0 0 Z " fill="#FFFFFF" transform="translate(255,23)"/>
<path d="M0 0 C3.40102578 1.67969028 5.43576989 4.09232547 7.4375 7.3125 C8.37169166 11.77586018 8.29515647 15.89876713 5.8828125 19.8125 C4.11904317 21.98329302 2.52049063 23.73975469 0 25 C-1.99960012 25.039992 -4.00047242 25.04346799 -6 25 C-5.01 24.34 -4.02 23.68 -3 23 C-0.65836921 21.26050284 0.77332318 20.00149941 1.4296875 17.1015625 C1.67603829 13.20342353 1.46489531 11.54693566 -1.125 8.5 C-4.51250333 6.73260696 -6.2335258 6.3722543 -10 7 C-12.9315113 8.4285061 -12.9315113 8.4285061 -15 11 C-15.89055736 14.64182335 -15.89055736 14.64182335 -16 18 C-16.66 17.67 -17.32 17.34 -18 17 C-18.38160272 12.22996598 -18.4609004 8.90534008 -16.25 4.5625 C-11.73125716 -0.58384601 -6.56901976 -1.01540053 0 0 Z " fill="#EB6508" transform="translate(158,0)"/>
<path d="M0 0 C6.93 0 13.86 0 21 0 C21 1.65 21 3.3 21 5 C18.36 5 15.72 5 13 5 C13 14.24 13 23.48 13 33 C11.35 33 9.7 33 8 33 C8 23.76 8 14.52 8 5 C5.03 5 2.06 5 -1 5 C-0.67 3.35 -0.34 1.7 0 0 Z " fill="#FFFFFF" transform="translate(49,23)"/>
<path d="M0 0 C1.67542976 0.28604898 3.34385343 0.61781233 5 1 C5.02465504 5.39656173 5.04283842 9.7930872 5.05493164 14.18969727 C5.05997121 15.68644918 5.06680287 17.18319616 5.07543945 18.67993164 C5.08752159 20.82699807 5.09323191 22.97399962 5.09765625 25.12109375 C5.10289307 26.4145874 5.10812988 27.70808105 5.11352539 29.04077148 C5 32 5 32 4 33 C2.33382885 33.04063832 0.66611905 33.042721 -1 33 C-1.02465392 28.46102295 -1.04283789 23.92208457 -1.05493164 19.38305664 C-1.0599714 17.83780234 -1.0668032 16.29255284 -1.07543945 14.74731445 C-1.08752076 12.53074971 -1.09323173 10.31424782 -1.09765625 8.09765625 C-1.10281754 7.4028566 -1.10797882 6.70805695 -1.11329651 5.99220276 C-1.11349277 4.3277067 -1.06189129 2.66334501 -1 1 C-0.67 0.67 -0.34 0.34 0 0 Z " fill="#FFFFFF" transform="translate(203,23)"/>
<path d="M0 0 C1.65 0.33 3.3 0.66 5 1 C5 11.23 5 21.46 5 32 C2.525 32.495 2.525 32.495 0 33 C-1.90849948 31.09150052 -1.13059633 27.68521226 -1.1328125 25.15625 C-1.13376923 24.47195923 -1.13472595 23.78766846 -1.13571167 23.0826416 C-1.1363933 21.63338123 -1.13454023 20.18411782 -1.13037109 18.73486328 C-1.12502252 16.50937072 -1.1303166 14.28407999 -1.13671875 12.05859375 C-1.13605797 10.65364539 -1.1347768 9.24869715 -1.1328125 7.84375 C-1.13168457 6.55662109 -1.13055664 5.26949219 -1.12939453 3.94335938 C-1 1 -1 1 0 0 Z " fill="#FFFFFF" transform="translate(35,23)"/>
</svg>
